<?xml version="1.0" encoding="UTF-8"?>
<svg width="122px" height="41px" viewBox="0 0 122 41" version="1.1" xmlns="http://www.w3.org/2000/svg" xmlns:xlink="http://www.w3.org/1999/xlink">
    <!-- Generator: Sketch 61 (89581) - https://sketch.com -->
    <title>logo</title>
    <desc>Created with Sketch.</desc>
    <g id="Page-1" stroke="none" stroke-width="1" fill="none" fill-rule="evenodd">
        <g id="Artboard" fill-rule="nonzero">
            <g id="logo">
                <g id="turtle">
                    <circle id="circle" fill="#354052" cx="20.2160225" cy="20.2160225" r="20.2160225"></circle>
                    <g transform="translate(0.000000, 6.110259)" id="Path">
                        <path d="M41.8651396,11.1724346 C41.3078251,11.1023246 40.7493222,11.0357796 40.1908193,10.9716112 C34.831568,10.3536931 29.4449858,9.98056564 24.0512738,9.85579371 C22.7607756,9.82489781 21.4690891,9.80944985 20.1785909,9.80707325 L4.84828049,9.80707325 L0.110512276,11.979293 C0.0368374253,12.6780158 -1.8189893e-13,13.3874333 -1.8189893e-13,14.105169 C-1.8189893e-13,14.9072742 0.0463438576,15.6986847 0.137843269,16.4770238 C0.289946186,17.7841583 0.568009331,19.053267 0.957773057,20.2712786 C1.27980345,21.2777721 1.67788531,22.2498049 2.1460771,23.1802469 C2.15677183,23.2004481 2.16627827,23.219461 2.1757847,23.2384738 C2.75567707,24.3828106 3.44251681,25.4641673 4.22085595,26.4694725 L33.3069739,26.4694725 C34.5643185,26.4694725 35.6178688,25.6021294 35.9036559,24.4330759 L29.9868525,24.4330759 C29.9868525,23.7411264 30.547732,23.1802469 31.2396814,23.1802469 L37.3745387,23.1802469 C37.6965691,23.1802469 38.0150346,23.1529159 38.3251819,23.1006305 C40.4641292,22.7393861 42.2477735,21.1779546 42.8538086,19.0366307 L44.1181641,14.5709841 C44.188274,14.3250052 44.2203583,14.077838 44.2203583,13.8366122 C44.2203583,12.5211597 43.2447606,11.3447387 41.8651396,11.1724346 Z" fill="#B4D87D"></path>
                        <path d="M9.57178905,19.1875453 L9.57178905,31.2939869 C7.51245814,30.0165601 5.69910618,28.3790771 4.22085595,26.4694725 C3.44251681,25.4641673 2.75567707,24.3828106 2.1757847,23.2384738 C2.16627827,23.219461 2.15677183,23.2004481 2.1460771,23.1802469 C2.07002564,23.0293323 1.99635079,22.8772294 1.92386424,22.7239382 L9.57178905,19.1875453 Z" fill="#B4D87D"></path>
                        <path d="M24.4018235,7.16309676 L20.1785909,9.80707325 L17.8126776,13.1794801 L3.56015891,25.5663614 C3.17277179,25.0042936 2.81152736,24.419648 2.48117884,23.8171779 C2.37660808,23.6270492 2.27441393,23.4333557 2.1757847,23.2384738 C2.16627827,23.219461 2.15677183,23.2004481 2.1460771,23.1802469 C2.07002564,23.0293323 1.99635079,22.8772294 1.92386424,22.7239382 C1.55073677,21.933716 1.22751807,21.1149745 0.957773057,20.2712786 C0.571574243,19.0639617 0.294699402,17.806736 0.141408181,16.5114846 C0.140219877,16.4996016 0.139031573,16.4877186 0.137843269,16.4770238 C0.0463438576,15.6986847 7.10542693e-14,14.9072742 7.10542693e-14,14.105169 C7.10542693e-14,13.3874333 0.0368374253,12.6780158 0.110512276,11.979293 C0.595340324,7.33896575 2.64991801,3.16683027 5.7347553,0 C14.5733608,0.0451555535 20.3211874,3.85367 22.2212856,5.33192023 C22.6799709,5.68841144 24.4018235,7.16309676 24.4018235,7.16309676 Z" fill="#EFA245"></path>
                        <path d="M25.8222033,8.69363236 L4.47990623,26.7950678 C4.39197173,26.6869321 4.30522554,26.5787965 4.22085595,26.4694725 C3.57441855,25.6352831 2.99214957,24.7488083 2.48117884,23.8171779 L23.5171311,5.97574336 C24.2675451,5.33928771 25.3919184,5.43161894 26.0284929,6.18203294 L26.0284929,6.18203294 C26.6651862,6.93256577 26.572855,8.05705789 25.8222033,8.69363236 Z" fill="#B76C34"></path>
                    </g>
                    <circle id="Oval" fill="#FFFFFF" cx="34.6003241" cy="23.0713983" r="2.69578655"></circle>
                    <circle id="Oval" fill="#4D4D4D" cx="34.6003241" cy="23.0713983" r="1.14481211"></circle>
                </g>
                <g id="text" transform="translate(50.000000, 11.000000)">
                    <path d="M13.5497311,5.94840668 C16.6044696,5.94840668 19.0694319,8.39150228 19.0543094,11.4871017 L19.0543094,11.4871017 L19.0543094,18.4977238 C19.0543094,19.3171472 18.3737984,20 17.5420626,20 C16.7103269,20 16.0298159,19.3323217 16.0298159,18.4977238 L16.0298159,18.4977238 L16.0298159,11.4871017 C16.0298159,10.060698 14.9258757,8.95295903 13.5346087,8.95295903 C12.1433416,8.95295903 11.0394015,10.060698 11.0394015,11.4871017 L11.0394015,11.4871017 L11.0394015,18.4977238 C11.0394015,19.3171472 10.3588904,20 9.5271547,20 C8.69541898,20 8.01490793,19.3323217 8.01490793,18.4977238 L8.01490793,18.4977238 L8.01490793,11.4871017 C8.01490793,10.060698 6.91096778,8.95295903 5.51970074,8.95295903 C4.12843371,8.95295903 3.02449356,10.060698 3.02449356,11.4871017 L3.02449356,11.4871017 L3.02449356,18.4977238 C3.02449356,19.3171472 2.34398251,20 1.51224678,20 C0.68051105,20 -1.81188398e-13,19.3323217 -1.81188398e-13,18.4977238 L-1.81188398e-13,18.4977238 L-1.81188398e-13,11.5022762 C-1.81188398e-13,8.39150228 2.46496225,5.94840668 5.51970074,5.94840668 C7.10755986,5.94840668 8.51394936,6.61608498 9.5271547,7.69347496 C10.54036,6.61608498 11.961872,5.94840668 13.5497311,5.94840668 Z M23.1524982,7.14719272 C23.9842339,7.14719272 24.664745,7.81487102 24.664745,8.64946889 L24.664745,8.64946889 L24.664745,18.4977238 C24.664745,19.3171472 23.9842339,20 23.1524982,20 C22.3207624,20 21.6402514,19.3323217 21.6402514,18.4977238 L21.6402514,18.4977238 L21.6402514,8.64946889 C21.6402514,7.83004552 22.3207624,7.14719272 23.1524982,7.14719272 Z M43.1141557,-1.77635684e-15 C43.9458914,-1.77635684e-15 44.6264024,0.6676783 44.6264024,1.50227618 L44.6264024,1.50227618 L44.6264024,6.05462822 L49.2387551,6.05462822 C50.0553684,6.05462822 50.7358794,6.73748103 50.7358794,7.57207891 C50.7358794,8.40667678 50.0704908,9.08952959 49.2387551,9.08952959 L49.2387551,9.08952959 L44.6264024,9.08952959 L44.6264024,13.7329287 C44.7776271,15.508346 46.0781593,16.9499241 47.8323656,16.9499241 C48.4372643,16.9499241 49.0119181,16.7830046 49.4958371,16.4946889 C50.0856133,16.1456753 50.8417367,16.2670713 51.3256557,16.7526555 L51.3256557,16.7526555 L51.4215132,16.8606335 C51.989343,17.5643399 51.8133552,18.6282246 51.0232063,19.0895296 C50.0856133,19.6509863 48.9967956,19.969651 47.8323656,19.969651 C44.4146879,19.969651 41.7531336,17.2078907 41.6019089,13.7481032 L41.6019089,13.7481032 L41.6019089,1.50227618 C41.6019089,0.682852807 42.2824199,-1.77635684e-15 43.1141557,-1.77635684e-15 Z M33.3601639,5.85735964 C36.7324742,5.85735964 39.4847634,8.52807284 39.4847634,11.9726859 L39.4847634,11.9726859 L39.4847634,18.4522003 C39.4847634,19.2716237 38.8042523,19.9544765 37.9725166,19.9544765 C37.1407809,19.9544765 36.4602698,19.2867982 36.4602698,18.4522003 L36.4602698,18.4522003 L36.4602698,11.9726859 C36.4602698,10.1972686 35.0690028,8.86191199 33.3601639,8.86191199 C31.6513251,8.86191199 30.260058,10.1972686 30.260058,11.9726859 L30.260058,11.9726859 L30.260058,18.4522003 C30.260058,19.2716237 29.579547,19.9544765 28.7478113,19.9544765 C27.9160755,19.9544765 27.2355645,19.2867982 27.2355645,18.4522003 L27.2355645,18.4522003 L27.2355645,11.9726859 C27.2355645,8.51289833 29.9878536,5.85735964 33.3601639,5.85735964 Z M23.1676206,1.88163885 C24.0195153,1.88163885 24.7101124,2.57461238 24.7101124,3.42943854 C24.7101124,4.28426471 24.0195153,4.97723824 23.1676206,4.97723824 C22.315726,4.97723824 21.6251289,4.28426471 21.6251289,3.42943854 C21.6251289,2.57461238 22.315726,1.88163885 23.1676206,1.88163885 Z" id="mint" fill="#354052"></path>
                    <path d="M69.5122468,7.14719272 C70.3439825,7.14719272 71.0244936,7.81487102 71.0244936,8.64946889 L71.0244936,8.64946889 L71.0244936,18.4977238 C71.0244936,19.3171472 70.3439825,20 69.5122468,20 C68.6805111,20 68,19.3323217 68,18.4977238 L68,18.4977238 L68,8.64946889 C68,7.83004552 68.6805111,7.14719272 69.5122468,7.14719272 Z M64.7369521,5.95447648 C65.5686879,5.95447648 66.2491989,6.63262503 66.2491989,7.44640328 L66.2491989,13.8812795 C66.2491989,17.3021622 63.4969098,19.9544765 60.1245995,19.9544765 C56.7522891,19.9544765 54,17.3172321 54,13.8812795 L54,7.44640328 C54,6.61755506 54.6805111,5.95447648 55.5122468,5.95447648 C56.3439825,5.95447648 57.0244936,6.63262503 57.0244936,7.44640328 L57.0244936,13.8812795 C57.0244936,15.6444657 58.4157606,16.9706229 60.1245995,16.9706229 C61.8334383,16.9706229 63.2247053,15.6444657 63.2247053,13.8812795 L63.2247053,7.44640328 C63.2247053,6.61755506 63.9052164,5.95447648 64.7369521,5.95447648 Z M69.5424917,1.88163885 C70.3943864,1.88163885 71.0849834,2.57461238 71.0849834,3.42943854 C71.0849834,4.28426471 70.3943864,4.97723824 69.5424917,4.97723824 C68.6905971,4.97723824 68,4.28426471 68,3.42943854 C68,2.57461238 68.6905971,1.88163885 69.5424917,1.88163885 Z" id="ui" fill="#4AAC94"></path>
                </g>
            </g>
        </g>
    </g>
</svg>