<svg xmlns="http://www.w3.org/2000/svg" width="24" height="24" viewBox="0 0 24 24">
    <path fill="none" fill-rule="evenodd" d="M20 9c1.105 0 2 .895 2 2v8c0 1.105-.895 2-2 2H4c-1.105 0-2-.895-2-2v-8c0-1.105.895-2 2-2h16zm-5.5 2H9.752l-.242.868h1.443c.842.03 1.345.392 1.509 1.088H9.736l-.236.868h2.972c-.072.337-.241.604-.508.8-.267.196-.614.295-1.042.3H9.644l.005.686 2.72 3.39h1.166v-.066l-2.53-3.143c.749 0 1.334-.165 1.755-.494.42-.33.662-.82.724-1.473h.78l.236-.868h-1.032c-.058-.429-.197-.791-.416-1.088h1.212L14.5 11zM19 6c.552 0 1 .448 1 1s-.448 1-1 1H5c-.552 0-1-.448-1-1s.448-1 1-1h14zm-2-3c.552 0 1 .448 1 1s-.448 1-1 1H7c-.552 0-1-.448-1-1s.448-1 1-1h10z"/>
</svg>
