<svg xmlns="http://www.w3.org/2000/svg" width="24" height="24" viewBox="0 0 24 24">
    <path fill="none" fill-rule="evenodd" d="M6.068 14.57c.652-.659 1.68-1.5 3.088-1.179.62.142 1.558.496 2.465.839 1.006.38 2.047.773 2.781.927l.093.019c.24.048.688.138.823.343.018.028.075.115.029.332-.047.102-.33.64-1.834.561-1.332-.21-2.316-.553-2.339-.56-.259-.093-.543.043-.635.302-.093.259.042.543.301.635.235.084 5.788 2.02 8.97-.514.949-.757 1.454-.823 1.67-.795.137.018.242.082.332.203.154.207.167.512.031.777-.496.974-2.185 3.292-7.128 3.774-4.736.462-7.504-.826-8.66-1.562.006-.062.013-.122.013-.184v-3.917zm-2.186-2.318c.087 0 .174.01.26.029.548.123.93.6.93 1.161v5.046c0 .107-.014.212-.041.313l-.041.123c-.187.477-.67.785-1.19.752l-.422-.03c-.32-.021-.612-.168-.822-.412-.21-.243-.31-.554-.282-.874l.422-5.018c.029-.343.204-.656.482-.86.206-.15.453-.23.704-.23zm13-6.466c1.772 0 3.214 1.442 3.214 3.214s-1.442 3.214-3.215 3.214c-1.473 0-2.715-.997-3.093-2.351-.077-.275-.12-.564-.12-.863 0-.105.005-.209.015-.311.078-.809.459-1.528 1.025-2.05.288-.266.624-.48.995-.627.366-.144.762-.226 1.178-.226zm-5.373-2.672c1.474 0 2.715.997 3.094 2.351-1.16.75-1.931 2.054-1.931 3.535 0 .107.008.21.015.315-.365.145-.761.227-1.178.227-1.772 0-3.214-1.442-3.214-3.214 0-1.773 1.442-3.214 3.214-3.214z"/>
</svg>
