<svg xmlns="http://www.w3.org/2000/svg" xmlns:xlink="http://www.w3.org/1999/xlink" width="24" height="24" viewBox="0 0 17 16">
    <defs>
        <path id="a" d="M5.595 2.296a8.048 8.048 0 0 1-.225-.275L4.5.894C4.1.38 3.771.12 3.461.08 3.13.036 2.727.22 2.07.71c-1.11.83-1.27 2.208-1.347 2.87-.206 1.76.747 4.012 2.425 5.75 1.737 1.906 4.424 3.161 6.544 3.063.699-.033 2.126-.1 3.05-1.121.549-.606.763-.985.74-1.309-.023-.302-.268-.638-.772-1.056l-1.102-.916c-.092-.076-.18-.156-.269-.236-.39-.354-1.002-.633-1.697.051-.293.288-1.138 1.041-1.666 1.508a8.42 8.42 0 0 0 1.803.34.354.354 0 0 1 .33.378.357.357 0 0 1-.39.32 8.698 8.698 0 0 1-2.541-.578c-.006-.002-.013-.001-.02-.003-.006-.003-.011-.006-.018-.008l-.002-.001A6.859 6.859 0 0 1 4.3 7.714l-.075-.09-.065-.08c-1.266-1.57-1.587-3.21-1.593-3.241a.351.351 0 0 1 .293-.406.359.359 0 0 1 .418.284c.012.064.113.575.411 1.261.479-.416 1.405-1.22 1.744-1.506.749-.628.502-1.239.162-1.64"/>
    </defs>
    <use transform="translate(1 2)" xlink:href="#a"/>
</svg>
