<svg xmlns="http://www.w3.org/2000/svg" width="40" height="40" viewBox="0 0 40 40">
    <path fill="#A1A6A7" fill-rule="evenodd" d="M20 .23C9.081.23.23 9.08.23 20 .23 30.919 9.08 39.77 20 39.77c10.919 0 19.77-8.851 19.77-19.77C39.77 9.081 30.92.23 20 .23zm0 1.54c10.068 0 18.23 8.162 18.23 18.23S30.068 38.23 20 38.23 1.77 30.068 1.77 20 9.932 1.77 20 1.77zm-6.003 24.835c-2.018 2.01-2.78 4.038-2.283 6.083 5.195-2.31 10.588-2.31 16.179 0 .415-2.237-.381-4.265-2.389-6.083-3.813-2.844-7.648-2.844-11.507 0zm-1.691-6.658a.77.77 0 0 0-1.089.045c-1.406 1.527-2.595 1.527-4.002 0a.77.77 0 0 0-1.133 1.043c2.017 2.19 4.252 2.19 6.268 0a.77.77 0 0 0-.044-1.088zm21.567 0a.77.77 0 0 0-1.088.045c-1.407 1.527-2.596 1.527-4.002 0a.77.77 0 0 0-1.133 1.043c2.016 2.19 4.251 2.19 6.268 0a.77.77 0 0 0-.045-1.088z"/>
</svg>
