<svg xmlns="http://www.w3.org/2000/svg" width="40" height="40" viewBox="0 0 40 40">
    <path fill="#A1A6A7" fill-rule="evenodd" d="M20 2C10.059 2 2 10.059 2 20s8.059 18 18 18 18-8.059 18-18S29.941 2 20 2zm0 2c8.837 0 16 7.163 16 16s-7.163 16-16 16S4 28.837 4 20 11.163 4 20 4zm-5.465 22.014c-1.838 1.83-2.53 3.676-2.079 5.538 4.73-2.104 9.64-2.104 14.73 0 .378-2.037-.347-3.883-2.175-5.538-3.471-2.59-6.963-2.59-10.476 0zm-1.54-6.062a.701.701 0 0 0-.991.04c-1.281 1.391-2.363 1.391-3.644 0a.701.701 0 1 0-1.032.95c1.837 1.994 3.871 1.994 5.707 0a.701.701 0 0 0-.04-.99zm19.636 0a.701.701 0 0 0-.991.04c-1.28 1.391-2.363 1.391-3.644 0a.701.701 0 1 0-1.031.95c1.836 1.994 3.87 1.994 5.707 0a.701.701 0 0 0-.041-.99z"/>
</svg>
