<svg xmlns="http://www.w3.org/2000/svg" width="40" height="40" viewBox="0 0 40 40">
    <g fill="none" fill-rule="evenodd">
        <path fill="#E1511C" fill-rule="nonzero" d="M20 2c9.941 0 18 8.059 18 18s-8.059 18-18 18S2 29.941 2 20 10.059 2 20 2z"/>
        <path fill="#FE8348" fill-rule="nonzero" d="M20 4C11.163 4 4 11.163 4 20s7.163 16 16 16 16-7.163 16-16S28.837 4 20 4z"/>
        <circle cx="9.5" cy="20.5" r="2.5" fill="#E1511C" fill-rule="nonzero"/>
        <path fill="#E1511C" d="M26.689 31.333a.973.973 0 0 0 1.217-1.519c-5.214-4.176-10.584-4.176-15.81 0a.973.973 0 1 0 1.214 1.52c4.516-3.608 8.876-3.608 13.379-.001z"/>
        <circle cx="30.5" cy="20.5" r="2.5" fill="#E1511C" fill-rule="nonzero"/>
        <path fill="#E1511C" d="M20 4c9.082 0 16 7.163 16 16 0 .51-.023 1.014-.068 1.511C35.18 13.373 28.335 7 20 7S4.819 13.373 4.068 21.512A16.688 16.688 0 0 1 4 20c0-8.837 6.918-16 16-16z" opacity=".25"/>
    </g>
</svg>
