<svg xmlns="http://www.w3.org/2000/svg" width="40" height="40" viewBox="0 0 40 40">
    <path fill="#A1A6A7" fill-rule="nonzero" d="M20 2c9.941 0 18 8.059 18 18s-8.059 18-18 18S2 29.941 2 20 10.059 2 20 2zm0 2C11.163 4 4 11.163 4 20s7.163 16 16 16 16-7.163 16-16S28.837 4 20 4zm-7.905 25.813c5.227-4.175 10.597-4.175 15.81.001a.973.973 0 0 1-1.216 1.519c-4.503-3.607-8.863-3.607-13.379 0a.973.973 0 0 1-1.215-1.52zM9.5 18a2.5 2.5 0 1 1 0 5 2.5 2.5 0 0 1 0-5zm21 0a2.5 2.5 0 1 1 0 5 2.5 2.5 0 0 1 0-5z"/>
</svg>
