<svg xmlns="http://www.w3.org/2000/svg" width="40" height="40" viewBox="0 0 40 40">
    <path fill="#A1A6A7" fill-rule="nonzero" d="M20.27 2.27c-9.94 0-18 8.06-18 18 0 9.941 8.06 18 18 18 9.941 0 18-8.059 18-18 0-9.94-8.059-18-18-18zm0 2c8.837 0 16 7.164 16 16 0 8.837-7.163 16-16 16-8.836 0-16-7.163-16-16 0-8.836 7.164-16 16-16zm7.433 23.176a1.027 1.027 0 0 1 .112 2.048l-.112.006h-15.92a1.027 1.027 0 0 1-.111-2.048l.112-.006h15.919zM9.5 23a2.5 2.5 0 1 0 0-5 2.5 2.5 0 0 0 0 5zm21 0a2.5 2.5 0 1 0 0-5 2.5 2.5 0 0 0 0 5z"/>
</svg>
