<svg xmlns="http://www.w3.org/2000/svg" width="40" height="40" viewBox="0 0 40 40">
    <path fill="#A1A6A7" fill-rule="nonzero" d="M20.27 2.27c9.941 0 18 8.06 18 18 0 9.941-8.059 18-18 18-9.94 0-18-8.059-18-18 0-9.94 8.06-18 18-18zm0 2c-8.836 0-16 7.164-16 16 0 8.837 7.164 16 16 16 8.837 0 16-7.163 16-16 0-8.836-7.163-16-16-16zM28.166 25c.405 2.179-.37 4.153-2.325 5.923-3.713 2.77-7.448 2.77-11.205 0-1.965-1.958-2.706-3.932-2.223-5.923 5.059 2.25 10.31 2.25 15.753 0zM10.88 18c.83 0 1.471.698 1.471 1.6 0 1.105-.91 2.006-2.3 3.344l-.375.407-.375-.407C7.91 21.606 7 20.704 7 19.6c0-.902.642-1.6 1.472-1.6.454 0 .91.233 1.204.61A1.56 1.56 0 0 1 10.88 18zm21 0c.83 0 1.471.698 1.471 1.6 0 1.105-.91 2.006-2.3 3.344l-.375.407-.375-.407C28.91 21.606 28 20.704 28 19.6c0-.902.642-1.6 1.472-1.6.454 0 .91.233 1.204.61A1.56 1.56 0 0 1 31.88 18z"/>
</svg>
