<svg xmlns="http://www.w3.org/2000/svg" width="40" height="40" viewBox="0 0 40 40">
    <g fill="none" fill-rule="evenodd">
        <path fill="#44984A" fill-rule="nonzero" d="M20 2c9.941 0 18 8.059 18 18s-8.059 18-18 18S2 29.941 2 20 10.059 2 20 2z"/>
        <path fill="#63C969" fill-rule="nonzero" d="M20 4C11.163 4 4 11.163 4 20s7.163 16 16 16 16-7.163 16-16S28.837 4 20 4z"/>
        <path fill="#5BBC61" d="M20 4c9.082 0 16 7.163 16 16 0 .51-.023 1.014-.068 1.511C35.18 13.373 28.335 7 20 7S4.819 13.373 4.068 21.512A16.688 16.688 0 0 1 4 20c0-8.837 6.918-16 16-16z"/>
        <path fill="#44984A" d="M12.413 25c5.059 2.25 10.31 2.25 15.753 0 .405 2.179-.37 4.153-2.325 5.923-3.713 2.77-7.448 2.77-11.205 0-1.965-1.958-2.706-3.932-2.223-5.923z"/>
        <path fill="#44984A" fill-rule="nonzero" d="M9.676 23.351l-.375-.407C7.91 21.606 7 20.704 7 19.6c0-.902.642-1.6 1.472-1.6.454 0 .91.233 1.204.61A1.56 1.56 0 0 1 10.88 18c.83 0 1.471.698 1.471 1.6 0 1.105-.91 2.006-2.3 3.344l-.375.407zM30.676 23.351l-.375-.407C28.91 21.606 28 20.704 28 19.6c0-.902.642-1.6 1.472-1.6.454 0 .91.233 1.204.61A1.56 1.56 0 0 1 31.88 18c.83 0 1.471.698 1.471 1.6 0 1.105-.91 2.006-2.3 3.344l-.375.407z"/>
    </g>
</svg>
