<svg xmlns="http://www.w3.org/2000/svg" width="40" height="40" viewBox="0 0 40 40">
    <g fill="none" fill-rule="evenodd">
        <path fill="#CD3234" fill-rule="nonzero" d="M20 .23C9.081.23.23 9.08.23 20 .23 30.919 9.08 39.77 20 39.77c10.919 0 19.77-8.851 19.77-19.77C39.77 9.081 30.92.23 20 .23z"/>
        <path fill="#FF575F" fill-rule="nonzero" d="M20 1.77c10.068 0 18.23 8.162 18.23 18.23S30.068 38.23 20 38.23 1.77 30.068 1.77 20 9.932 1.77 20 1.77z"/>
        <path fill="#CD3234" fill-rule="nonzero" d="M11.217 19.992a.77.77 0 0 1 1.133 1.043c-2.016 2.19-4.251 2.19-6.268 0a.77.77 0 1 1 1.133-1.043c1.407 1.527 2.596 1.527 4.002 0zM32.785 19.992a.77.77 0 0 1 1.133 1.043c-2.017 2.19-4.252 2.19-6.268 0a.77.77 0 0 1 1.133-1.043c1.406 1.527 2.595 1.527 4.002 0z"/>
        <path fill="#CD3234" d="M11.714 32.174c5.195-2.31 10.588-2.31 16.179 0 .415-2.237-.381-4.265-2.389-6.082-3.813-2.845-7.648-2.845-11.507 0-2.018 2.01-2.78 4.038-2.283 6.082z"/>
        <path fill="#C03133" d="M20 1.514c10.214 0 18.059 7.95 18.47 17.92C36.456 11.214 28.95 5.108 20 5.108S3.544 11.214 1.53 19.434C1.942 9.464 9.787 1.514 20 1.514z" opacity=".249"/>
    </g>
</svg>
